# xmcd
#
# Track frame offsets: 
#        150
#        16231
#        27790
#        40486
#        53986
#        69422
#        84906
#        99991
#        115329
#        125077
#        139868
#        155043
#
# Disc length: 2225 seconds
#
# Revision: 0
# Processed by: cddbd v1.5.2PL0 Copyright (c) Steve Scherf et al.
# Submitted via: ExactAudioCopy v1.0b3
#
DISCID=9e08af0c
DTITLE=Errol Norstedt - Errol
DYEAR=1975
DGENRE=Pop
TTITLE0=Tampico
TTITLE1=Om du ändrar dig
TTITLE2=Flickan i huset mitt emot
TTITLE3=Går du i tankar
TTITLE4=En trevlig röst i telefon
TTITLE5=Operator
TTITLE6=Napoleon
TTITLE7=Tretton år
TTITLE8=Snus-kig blues
TTITLE9=Här hemma
TTITLE10=Trösta mig
TTITLE11=Nu e de ja
EXTD=
EXTT0=
EXTT1=
EXTT2=
EXTT3=
EXTT4=
EXTT5=
EXTT6=
EXTT7=
EXTT8=
EXTT9=
EXTT10=
EXTT11=
PLAYORDER=
